<svg xmlns="http://www.w3.org/2000/svg" width="687.5040283203125" height="97.56510925292969" viewBox="-224.5015106201172 49.476348876953125 687.5040283203125 97.56510925292969"><title>Neo4j Graph Visualization</title><desc>Created using Neo4j (http://www.neo4j.com/)</desc><g class="layer relationships"><g class="relationship" transform="translate(-31.260317886605534 99.20442938889329) rotate(182.19801210540493)"><path class="outline" fill="#ECB5C9" stroke="none" d="M 40 0.5 L 53.95287992610241 0.5 L 53.95287992610241 -0.5 L 40 -0.5 Z M 88.39819242610241 0.5 L 102.35107235220482 0.5 L 102.35107235220482 3.5 L 109.35107235220482 0 L 102.35107235220482 -3.5 L 102.35107235220482 -0.5 L 88.39819242610241 -0.5 Z"/><text text-anchor="middle" pointer-events="none" font-size="8px" fill="#000000" x="71.17553617610241" y="3" transform="rotate(180 71.17553617610241 0)" font-family="sans-serif">ORIGIN</text></g><g class="relationship" transform="translate(-31.260317886605534 99.20442938889329) rotate(358.7256474892715)"><path class="outline" fill="#ECB5C9" stroke="none" d="M 40 0.5 L 41.7321743195277 0.5 L 41.7321743195277 -0.5 L 40 -0.5 Z M 100.9235805695277 0.5 L 102.6557548890554 0.5 L 102.6557548890554 3.5 L 109.6557548890554 0 L 102.6557548890554 -3.5 L 102.6557548890554 -0.5 L 100.9235805695277 -0.5 Z"/><text text-anchor="middle" pointer-events="none" font-size="8px" fill="#000000" x="71.3278774445277" y="3" font-family="sans-serif">DESTINATION</text></g><g class="relationship" transform="translate(251.5937747231095 103.04145946039336) rotate(183.07837950321039)"><path class="outline" fill="#ECB5C9" stroke="none" d="M 40 0.5 L 45.99128801499285 0.5 L 45.99128801499285 -0.5 L 40 -0.5 Z M 80.43660051499285 0.5 L 86.4278885299857 0.5 L 86.4278885299857 3.5 L 93.4278885299857 0 L 86.4278885299857 -3.5 L 86.4278885299857 -0.5 L 80.43660051499285 -0.5 Z"/><text text-anchor="middle" pointer-events="none" font-size="8px" fill="#000000" x="63.21394426499285" y="3" transform="rotate(180 63.21394426499285 0)" font-family="sans-serif">ORIGIN</text></g><g class="relationship" transform="translate(251.5937747231095 103.04145946039336) rotate(359.2211701493691)"><path class="outline" fill="#ECB5C9" stroke="none" d="M 40 0.5 L 50.61640253535484 0.5 L 50.61640253535484 -0.5 L 40 -0.5 Z M 109.80780878535484 0.5 L 120.42421132070967 0.5 L 120.42421132070967 3.5 L 127.42421132070967 0 L 120.42421132070967 -3.5 L 120.42421132070967 -0.5 L 109.80780878535484 -0.5 Z"/><text text-anchor="middle" pointer-events="none" font-size="8px" fill="#000000" x="80.21210566035484" y="3" font-family="sans-serif">DESTINATION</text></g></g><g class="layer nodes"><g class="node" transform="translate(-180.5015048417229,93.476346901601)"><circle class="outline" cx="0" cy="0" r="40" fill="#DA7194" stroke="#cc3c6c" stroke-width="2px"/><text text-anchor="middle" pointer-events="none" font-family="sans-serif" dy="2.5" font-size="40" fill="#FFFFFF"/><text text-anchor="middle" pointer-events="none" x="0" y="5" font-size="10px" fill="#FFFFFF" font-family="sans-serif"> MSN</text></g><g class="node" transform="translate(419.00251849514575,100.76570792949995)"><circle class="outline" cx="0" cy="0" r="40" fill="#DA7194" stroke="#cc3c6c" stroke-width="2px"/><text text-anchor="middle" pointer-events="none" font-family="sans-serif" dy="2.5" font-size="40" fill="#FFFFFF"/><text text-anchor="middle" pointer-events="none" x="0" y="5" font-size="10px" fill="#FFFFFF" font-family="sans-serif"> GRR</text></g><g class="node" transform="translate(-31.260317886605534,99.20442938889329)"><circle class="outline" cx="0" cy="0" r="40" fill="#57C7E3" stroke="#23b3d7" stroke-width="2px"/><text text-anchor="middle" pointer-events="none" font-family="sans-serif" dy="2.5" font-size="40" fill="#2A2C34"/><text text-anchor="middle" pointer-events="none" x="0" y="5" font-size="40" fill="#2A2C34" dy="2.5" font-family="sans-serif"/><text text-anchor="middle" pointer-events="none" x="0" y="0" font-size="10px" fill="#2A2C34" font-family="sans-serif"> 11/30/2015</text><text text-anchor="middle" pointer-events="none" x="0" y="10" font-size="10px" fill="#2A2C34" font-family="sans-serif"> 05:26:41</text></g><g class="node" transform="translate(118.35842186079151,95.87611332612339)"><circle class="outline" cx="0" cy="0" r="40" fill="#DA7194" stroke="#cc3c6c" stroke-width="2px"/><text text-anchor="middle" pointer-events="none" font-family="sans-serif" dy="2.5" font-size="40" fill="#FFFFFF"/><text text-anchor="middle" pointer-events="none" x="0" y="5" font-size="10px" fill="#FFFFFF" font-family="sans-serif"> ORD</text></g><g class="node" transform="translate(251.5937747231095,103.04145946039336)"><circle class="outline" cx="0" cy="0" r="40" fill="#57C7E3" stroke="#23b3d7" stroke-width="2px"/><text text-anchor="middle" pointer-events="none" font-family="sans-serif" dy="2.5" font-size="40" fill="#2A2C34"/><text text-anchor="middle" pointer-events="none" x="0" y="5" font-size="40" fill="#2A2C34" dy="2.5" font-family="sans-serif"/><text text-anchor="middle" pointer-events="none" x="0" y="0" font-size="10px" fill="#2A2C34" font-family="sans-serif"> 11/3/2015</text><text text-anchor="middle" pointer-events="none" x="0" y="10" font-size="10px" fill="#2A2C34" font-family="sans-serif"> 14:27:55</text></g></g></svg>