<svg xmlns="http://www.w3.org/2000/svg" width="163.59837341308594" height="242.54122924804688" viewBox="-0.3734779357910156 -20.110679626464844 163.59837341308594 242.54122924804688"><title>Neo4j Graph Visualization</title><desc>Created using Neo4j (http://www.neo4j.com/)</desc><g class="layer relationships"><g class="relationship" transform="translate(134.22489176491464 8.889319149003796) rotate(520.9110385443897)"><path class="outline" fill="#A5ABB6" stroke="none" d="M 21.40063509461097,12.933012701892217 L 21.90063509461097,12.06698729810778 A 59.92174047773574 59.92174047773574 0 0 0 23.460905057163327,12.937059556929263 L 22.986943519165813,13.817605104018696 A 60.92174047773574 60.92174047773574 0 0 1 21.40063509461097,12.933012701892217 Z M 77.37585432772693,15.494810977512884 L 76.95704900807962,14.586734932109678 A 59.92174047773574 59.92174047773574 0 0 0 78.56796468832157,13.814453401342222 L 77.23089775024928,11.128889772769254 L 85.05712431133722,11.142224483935717 L 80.35072060575129,17.39520490610618 L 79.01365366767901,14.70964127753321 A 60.92174047773574 60.92174047773574 0 0 1 77.37585432772693,15.494810977512884"/><text text-anchor="middle" pointer-events="none" font-size="8px" fill="#000000" x="49.99914870631774" y="23.56627010345047" transform="rotate(180 49.99914870631774 20.56627010345047)" font-family="sans-serif">PublicTrans…</text></g><g class="relationship" transform="translate(32.69581334172929 44.025010227471014) rotate(452.1854967135315)"><path class="outline" fill="#A5ABB6" stroke="none" d="M 25 0.5 L 40.18599170603474 0.5 L 40.18599170603474 -0.5 L 25 -0.5 Z M 59.52192920603474 0.5 L 74.70792091206948 0.5 L 74.70792091206948 3.5 L 81.70792091206948 0 L 74.70792091206948 -3.5 L 74.70792091206948 -0.5 L 59.52192920603474 -0.5 Z"/><text text-anchor="middle" pointer-events="none" font-size="8px" fill="#000000" x="49.85396045603474" y="3" transform="rotate(180 49.85396045603474 0)" font-family="sans-serif">trek</text></g><g class="relationship" transform="translate(28.62652125404461 150.65531195864676) rotate(383.46487810022455)"><path class="outline" fill="#A5ABB6" stroke="none" d="M 25 0.5 L 40.544544697452665 0.5 L 40.544544697452665 -0.5 L 25 -0.5 Z M 59.880482197452665 0.5 L 75.42502689490533 0.5 L 75.42502689490533 3.5 L 82.42502689490533 0 L 75.42502689490533 -3.5 L 75.42502689490533 -0.5 L 59.880482197452665 -0.5 Z"/><text text-anchor="middle" pointer-events="none" font-size="8px" fill="#000000" x="50.212513447452665" y="3" font-family="sans-serif">trek</text></g><g class="relationship" transform="translate(134.22489176491464 8.889319149003796) rotate(520.9110385443897)"><path class="outline" fill="#A5ABB6" stroke="none" d="M 25 0.5 L 40.550441858055976 0.5 L 40.550441858055976 -0.5 L 25 -0.5 Z M 59.886379358055976 0.5 L 75.43682121611195 0.5 L 75.43682121611195 3.5 L 82.43682121611195 0 L 75.43682121611195 -3.5 L 75.43682121611195 -0.5 L 59.886379358055976 -0.5 Z"/><text text-anchor="middle" pointer-events="none" font-size="8px" fill="#000000" x="50.218410608055976" y="3" transform="rotate(180 50.218410608055976 0)" font-family="sans-serif">trek</text></g><g class="relationship" transform="translate(134.22489176491464 8.889319149003796) rotate(520.9110385443897)"><path class="outline" fill="#A5ABB6" stroke="none" d="M 21.40063509461097,-12.933012701892217 L 21.90063509461097,-12.06698729810778 A 59.92174047773574 59.92174047773574 0 0 1 39.195745060146024,-18.741091604056386 L 38.9843733581168,-19.718497355820347 A 60.92174047773574 60.92174047773574 0 0 0 21.40063509461097,-12.933012701892217 Z M 61.0452315596912,-20.39879413690938 L 60.89448527184395,-19.410221652616862 A 59.92174047773574 59.92174047773574 0 0 1 78.56796468832157,-13.814453401342222 L 77.23089775024928,-11.128889772769254 L 85.05712431133722,-11.142224483935717 L 80.35072060575129,-17.39520490610618 L 79.01365366767901,-14.70964127753321 A 60.92174047773574 60.92174047773574 0 0 0 61.0452315596912,-20.39879413690938"/><text text-anchor="middle" pointer-events="none" font-size="8px" fill="#000000" x="49.999148706317754" y="-17.56627010345047" transform="rotate(180 49.999148706317754 -20.56627010345047)" font-family="sans-serif">road</text></g></g><g class="layer nodes"><g class="node" transform="translate(134.22489176491464,8.889319149003796)"><circle class="outline" cx="0" cy="0" r="25" fill="#F79767" stroke="#f36924" stroke-width="2px"/><text text-anchor="middle" pointer-events="none" font-family="sans-serif" dy="1.5625" font-size="25" fill="#FFFFFF"/><text text-anchor="middle" pointer-events="none" x="0" y="5" font-size="10px" fill="#FFFFFF" font-family="sans-serif"> Darjeeling</text></g><g class="node" transform="translate(127.16796383045973,193.43054425877833)"><circle class="outline" cx="0" cy="0" r="25" fill="#57C7E3" stroke="#23b3d7" stroke-width="2px"/><text text-anchor="middle" pointer-events="none" font-family="sans-serif" dy="1.5625" font-size="25" fill="#2A2C34"/><text text-anchor="middle" pointer-events="none" x="0" y="5" font-size="10px" fill="#2A2C34" font-family="sans-serif"> Sandak…</text></g><g class="node" transform="translate(32.69581334172929,44.025010227471014)"><circle class="outline" cx="0" cy="0" r="25" fill="#F79767" stroke="#f36924" stroke-width="2px"/><text text-anchor="middle" pointer-events="none" font-family="sans-serif" dy="1.5625" font-size="25" fill="#FFFFFF"/><text text-anchor="middle" pointer-events="none" x="0" y="5" font-size="10px" fill="#FFFFFF" font-family="sans-serif"> Rimbik</text></g><g class="node" transform="translate(28.62652125404461,150.65531195864676)"><circle class="outline" cx="0" cy="0" r="25" fill="#F16667" stroke="#eb2728" stroke-width="2px"/><text text-anchor="middle" pointer-events="none" font-family="sans-serif" dy="1.5625" font-size="25" fill="#FFFFFF"/><text text-anchor="middle" pointer-events="none" x="0" y="5" font-size="10px" fill="#FFFFFF" font-family="sans-serif"> BhikeBh…</text></g></g></svg>