<svg xmlns="http://www.w3.org/2000/svg" width="471.3341369628906" height="428.52178955078125" viewBox="-127.49039459228516 -132.4381103515625 471.3341369628906 428.52178955078125"><title>Neo4j Graph Visualization</title><desc>Created using Neo4j (http://www.neo4j.com/)</desc><g class="layer relationships"><g class="relationship" transform="translate(202.7730832337188 -74.55200244648233) rotate(405.05636850895155)"><path class="outline" fill="#A5ABB6" stroke="none" d="M 40 0.5 L 47.98430126571067 0.5 L 47.98430126571067 -0.5 L 40 -0.5 Z M 82.42961376571067 0.5 L 90.41391503142134 0.5 L 90.41391503142134 3.5 L 97.41391503142134 0 L 90.41391503142134 -3.5 L 90.41391503142134 -0.5 L 82.42961376571067 -0.5 Z"/><text text-anchor="middle" pointer-events="none" font-size="8px" fill="#000000" x="65.20695751571067" y="3" font-family="sans-serif">ORIGIN</text></g><g class="relationship" transform="translate(202.7730832337188 -74.55200244648233) rotate(185.72310888114913)"><path class="outline" fill="#A5ABB6" stroke="none" d="M 40 0.5 L 41.78876099688915 0.5 L 41.78876099688915 -0.5 L 40 -0.5 Z M 90.46063599688915 0.5 L 92.2493969937783 0.5 L 92.2493969937783 3.5 L 99.2493969937783 0 L 92.2493969937783 -3.5 L 92.2493969937783 -0.5 L 90.46063599688915 -0.5 Z"/><text text-anchor="middle" pointer-events="none" font-size="8px" fill="#000000" x="66.12469849688915" y="3" transform="rotate(180 66.12469849688915 0)" font-family="sans-serif">DESTINA…</text></g><g class="relationship" transform="translate(-45.278955374773105 -2.3956431710589206) rotate(321.8397627828478)"><path class="outline" fill="#A5ABB6" stroke="none" d="M 40 0.5 L 48.90643380824021 0.5 L 48.90643380824021 -0.5 L 40 -0.5 Z M 83.35174630824021 0.5 L 92.25818011648042 0.5 L 92.25818011648042 3.5 L 99.25818011648042 0 L 92.25818011648042 -3.5 L 92.25818011648042 -0.5 L 83.35174630824021 -0.5 Z"/><text text-anchor="middle" pointer-events="none" font-size="8px" fill="#000000" x="66.12909005824021" y="3" font-family="sans-serif">ORIGIN</text></g><g class="relationship" transform="translate(-45.278955374773105 -2.3956431710589206) rotate(466.2278008079377)"><path class="outline" fill="#A5ABB6" stroke="none" d="M 40 0.5 L 40.531348711086224 0.5 L 40.531348711086224 -0.5 L 40 -0.5 Z M 89.20322371108622 0.5 L 89.73457242217245 0.5 L 89.73457242217245 3.5 L 96.73457242217245 0 L 89.73457242217245 -3.5 L 89.73457242217245 -0.5 L 89.20322371108622 -0.5 Z"/><text text-anchor="middle" pointer-events="none" font-size="8px" fill="#000000" x="64.86728621108622" y="3" transform="rotate(180 64.86728621108622 0)" font-family="sans-serif">DESTINA…</text></g><g class="relationship" transform="translate(-26.67565871046222 252.0836826669334) rotate(245.2414812046817)"><path class="outline" fill="#A5ABB6" stroke="none" d="M 40 0.5 L 42.66326872460813 0.5 L 42.66326872460813 -0.5 L 40 -0.5 Z M 85.99920622460813 0.5 L 88.66247494921626 0.5 L 88.66247494921626 3.5 L 95.66247494921626 0 L 88.66247494921626 -3.5 L 88.66247494921626 -0.5 L 85.99920622460813 -0.5 Z"/><text text-anchor="middle" pointer-events="none" font-size="8px" fill="#000000" x="64.33123747460813" y="3" transform="rotate(180 64.33123747460813 0)" font-family="sans-serif">DESTIN…</text></g><g class="relationship" transform="translate(-26.67565871046222 252.0836826669334) rotate(333.55714854658356)"><path class="outline" fill="#A5ABB6" stroke="none" d="M 40 0.5 L 45.36730116688588 0.5 L 45.36730116688588 -0.5 L 40 -0.5 Z M 79.81261366688588 0.5 L 85.17991483377176 0.5 L 85.17991483377176 3.5 L 92.17991483377176 0 L 85.17991483377176 -3.5 L 85.17991483377176 -0.5 L 79.81261366688588 -0.5 Z"/><text text-anchor="middle" pointer-events="none" font-size="8px" fill="#000000" x="62.58995741688588" y="3" font-family="sans-serif">ORIGIN</text></g><g class="relationship" transform="translate(119.36099896234833 49.005773693437106) rotate(460.86690637523895)"><path class="outline" fill="#A5ABB6" stroke="none" d="M 40 0.5 L 52.70279475952343 0.5 L 52.70279475952343 -0.5 L 40 -0.5 Z M 87.14810725952343 0.5 L 99.85090201904686 0.5 L 99.85090201904686 3.5 L 106.85090201904686 0 L 99.85090201904686 -3.5 L 99.85090201904686 -0.5 L 87.14810725952343 -0.5 Z"/><text text-anchor="middle" pointer-events="none" font-size="8px" fill="#000000" x="69.92545100952343" y="3" transform="rotate(180 69.92545100952343 0)" font-family="sans-serif">ORIGIN</text></g><g class="relationship" transform="translate(119.36099896234833 49.005773693437106) rotate(411.4878411906515)"><path class="outline" fill="#A5ABB6" stroke="none" d="M 40 0.5 L 40.21777318192301 0.5 L 40.21777318192301 -0.5 L 40 -0.5 Z M 95.40917943192301 0.5 L 95.62695261384602 0.5 L 95.62695261384602 3.5 L 102.62695261384602 0 L 95.62695261384602 -3.5 L 95.62695261384602 -0.5 L 95.40917943192301 -0.5 Z"/><text text-anchor="middle" pointer-events="none" font-size="8px" fill="#000000" x="67.81347630692301" y="3" font-family="sans-serif">DESTINATI…</text></g></g><g class="layer nodes"><g class="node" transform="translate(208.17204978023804,160.6079460044387)"><circle class="outline" cx="0" cy="0" r="40" fill="#569480" stroke="#447666" stroke-width="2px"/><text text-anchor="middle" pointer-events="none" font-family="sans-serif" dy="2.5" font-size="40" fill="#FFFFFF"/><text text-anchor="middle" pointer-events="none" x="0" y="5" font-size="10px" fill="#FFFFFF" font-family="sans-serif"> DAY</text></g><g class="node" transform="translate(299.8437535949867,22.709855441781105)"><circle class="outline" cx="0" cy="0" r="40" fill="#569480" stroke="#447666" stroke-width="2px"/><text text-anchor="middle" pointer-events="none" font-family="sans-serif" dy="2.5" font-size="40" fill="#FFFFFF"/><text text-anchor="middle" pointer-events="none" x="0" y="5" font-size="10px" fill="#FFFFFF" font-family="sans-serif"> LAX</text></g><g class="node" transform="translate(202.7730832337188,-74.55200244648233)"><circle class="outline" cx="0" cy="0" r="40" fill="#8DCC93" stroke="#5db665" stroke-width="2px"/><text text-anchor="middle" pointer-events="none" font-family="sans-serif" dy="2.5" font-size="40" fill="#2A2C34"/><text text-anchor="middle" pointer-events="none" x="0" y="5" font-size="10px" fill="#2A2C34" font-family="sans-serif"> 838</text></g><g class="node" transform="translate(64.21778449741359,-88.43810179885956)"><circle class="outline" cx="0" cy="0" r="40" fill="#569480" stroke="#447666" stroke-width="2px"/><text text-anchor="middle" pointer-events="none" font-family="sans-serif" dy="2.5" font-size="40" fill="#FFFFFF"/><text text-anchor="middle" pointer-events="none" x="0" y="5" font-size="10px" fill="#FFFFFF" font-family="sans-serif"> LAS</text></g><g class="node" transform="translate(-45.278955374773105,-2.3956431710589206)"><circle class="outline" cx="0" cy="0" r="40" fill="#8DCC93" stroke="#5db665" stroke-width="2px"/><text text-anchor="middle" pointer-events="none" font-family="sans-serif" dy="2.5" font-size="40" fill="#2A2C34"/><text text-anchor="middle" pointer-events="none" x="0" y="5" font-size="10px" fill="#2A2C34" font-family="sans-serif"> 822</text></g><g class="node" transform="translate(-83.49039188234912,128.89117800876022)"><circle class="outline" cx="0" cy="0" r="40" fill="#569480" stroke="#447666" stroke-width="2px"/><text text-anchor="middle" pointer-events="none" font-family="sans-serif" dy="2.5" font-size="40" fill="#FFFFFF"/><text text-anchor="middle" pointer-events="none" x="0" y="5" font-size="10px" fill="#FFFFFF" font-family="sans-serif"> DEN</text></g><g class="node" transform="translate(-26.67565871046222,252.0836826669334)"><circle class="outline" cx="0" cy="0" r="40" fill="#8DCC93" stroke="#5db665" stroke-width="2px"/><text text-anchor="middle" pointer-events="none" font-family="sans-serif" dy="2.5" font-size="40" fill="#2A2C34"/><text text-anchor="middle" pointer-events="none" x="0" y="5" font-size="10px" fill="#2A2C34" font-family="sans-serif"> 802</text></g><g class="node" transform="translate(91.67545696777744,193.22331142125492)"><circle class="outline" cx="0" cy="0" r="40" fill="#569480" stroke="#447666" stroke-width="2px"/><text text-anchor="middle" pointer-events="none" font-family="sans-serif" dy="2.5" font-size="40" fill="#FFFFFF"/><text text-anchor="middle" pointer-events="none" x="0" y="5" font-size="10px" fill="#FFFFFF" font-family="sans-serif"> MSP</text></g><g class="node" transform="translate(119.36099896234833,49.005773693437106)"><circle class="outline" cx="0" cy="0" r="40" fill="#8DCC93" stroke="#5db665" stroke-width="2px"/><text text-anchor="middle" pointer-events="none" font-family="sans-serif" dy="2.5" font-size="40" fill="#2A2C34"/><text text-anchor="middle" pointer-events="none" x="0" y="5" font-size="10px" fill="#2A2C34" font-family="sans-serif"> 1254</text></g></g></svg>