<svg xmlns="http://www.w3.org/2000/svg" width="455.9573059082031" height="469.9913024902344" viewBox="-130.57064819335938 -130.09872436523438 455.9573059082031 469.9913024902344"><title>Neo4j Graph Visualization</title><desc>Created using Neo4j (http://www.neo4j.com/)</desc><g class="layer relationships"><g class="relationship" transform="translate(279.17486364326 29.553331764084664) rotate(449.0209701916534)"><path class="outline" fill="#A5ABB6" stroke="none" d="M 40 0.5 L 44.00199886936947 0.5 L 44.00199886936947 -0.5 L 40 -0.5 Z M 78.44731136936947 0.5 L 82.44931023873895 0.5 L 82.44931023873895 3.5 L 89.44931023873895 0 L 82.44931023873895 -3.5 L 82.44931023873895 -0.5 L 78.44731136936947 -0.5 Z"/><text text-anchor="middle" pointer-events="none" font-size="8px" fill="#000000" x="61.22465511936947" y="3" font-family="sans-serif">ORIGIN</text></g><g class="relationship" transform="translate(279.17486364326 29.553331764084664) rotate(226.15694679961103)"><path class="outline" fill="#A5ABB6" stroke="none" d="M 40 0.5 L 42.31245767232177 0.5 L 42.31245767232177 -0.5 L 40 -0.5 Z M 79.87105142232177 0.5 L 82.18350909464354 0.5 L 82.18350909464354 3.5 L 89.18350909464354 0 L 82.18350909464354 -3.5 L 82.18350909464354 -0.5 L 79.87105142232177 -0.5 Z"/><text text-anchor="middle" pointer-events="none" font-size="8px" fill="#000000" x="61.09175454732177" y="3" transform="rotate(180 61.09175454732177 0)" font-family="sans-serif">DESTI…</text></g><g class="relationship" transform="translate(61.253190875422 -86.09872959305926) rotate(369.9275782938621)"><path class="outline" fill="#A5ABB6" stroke="none" d="M 40 0.5 L 44.47262406534966 0.5 L 44.47262406534966 -0.5 L 40 -0.5 Z M 78.91793656534966 0.5 L 83.39056063069933 0.5 L 83.39056063069933 3.5 L 90.39056063069933 0 L 83.39056063069933 -3.5 L 83.39056063069933 -0.5 L 78.91793656534966 -0.5 Z"/><text text-anchor="middle" pointer-events="none" font-size="8px" fill="#000000" x="61.69528031534966" y="3" font-family="sans-serif">ORIGIN</text></g><g class="relationship" transform="translate(61.253190875422 -86.09872959305926) rotate(504.1637822590265)"><path class="outline" fill="#A5ABB6" stroke="none" d="M 40 0.5 L 40.111632098879994 0.5 L 40.111632098879994 -0.5 L 40 -0.5 Z M 83.44756959888 0.5 L 83.55920169775999 0.5 L 83.55920169775999 3.5 L 90.55920169775999 0 L 83.55920169775999 -3.5 L 83.55920169775999 -0.5 L 83.44756959888 -0.5 Z"/><text text-anchor="middle" pointer-events="none" font-size="8px" fill="#000000" x="61.779600848879994" y="3" transform="rotate(180 61.779600848879994 0)" font-family="sans-serif">DESTIN…</text></g><g class="relationship" transform="translate(-86.57064562286969 114.88429161137077) rotate(288.62744966475725)"><path class="outline" fill="#A5ABB6" stroke="none" d="M 40 0.5 L 40.54670889034736 0.5 L 40.54670889034736 -0.5 L 40 -0.5 Z M 83.88264639034736 0.5 L 84.42935528069472 0.5 L 84.42935528069472 3.5 L 91.42935528069472 0 L 84.42935528069472 -3.5 L 84.42935528069472 -0.5 L 83.88264639034736 -0.5 Z"/><text text-anchor="middle" pointer-events="none" font-size="8px" fill="#000000" x="62.21467764034736" y="3" font-family="sans-serif">DESTIN…</text></g><g class="relationship" transform="translate(-86.57064562286969 114.88429161137077) rotate(430.467714927948)"><path class="outline" fill="#A5ABB6" stroke="none" d="M 40 0.5 L 45.50848777176071 0.5 L 45.50848777176071 -0.5 L 40 -0.5 Z M 79.95380027176071 0.5 L 85.46228804352143 0.5 L 85.46228804352143 3.5 L 92.46228804352143 0 L 85.46228804352143 -3.5 L 85.46228804352143 -0.5 L 79.95380027176071 -0.5 Z"/><text text-anchor="middle" pointer-events="none" font-size="8px" fill="#000000" x="62.73114402176071" y="3" font-family="sans-serif">ORIGIN</text></g><g class="relationship" transform="translate(82.12741620421531 199.83807991344136) rotate(522.2243191563929)"><path class="outline" fill="#A5ABB6" stroke="none" d="M 40 0.5 L 44.60142158189004 0.5 L 44.60142158189004 -0.5 L 40 -0.5 Z M 79.04673408189004 0.5 L 83.64815566378007 0.5 L 83.64815566378007 3.5 L 90.64815566378007 0 L 83.64815566378007 -3.5 L 83.64815566378007 -0.5 L 79.04673408189004 -0.5 Z"/><text text-anchor="middle" pointer-events="none" font-size="8px" fill="#000000" x="61.82407783189004" y="3" transform="rotate(180 61.82407783189004 0)" font-family="sans-serif">ORIGIN</text></g><g class="relationship" transform="translate(82.12741620421531 199.83807991344136) rotate(407.96117932921413)"><path class="outline" fill="#A5ABB6" stroke="none" d="M 40 0.5 L 42.38719337304656 0.5 L 42.38719337304656 -0.5 L 40 -0.5 Z M 79.94578712304656 0.5 L 82.33298049609311 0.5 L 82.33298049609311 3.5 L 89.33298049609311 0 L 82.33298049609311 -3.5 L 82.33298049609311 -0.5 L 79.94578712304656 -0.5 Z"/><text text-anchor="middle" pointer-events="none" font-size="8px" fill="#000000" x="61.16649024804656" y="3" font-family="sans-serif">DESTI…</text></g></g><g class="layer nodes"><g class="node" transform="translate(168.73317330939983,295.8925575823173)"><circle class="outline" cx="0" cy="0" r="40" fill="#569480" stroke="#447666" stroke-width="2px"/><text text-anchor="middle" pointer-events="none" font-family="sans-serif" dy="2.5" font-size="40" fill="#FFFFFF"/><text text-anchor="middle" pointer-events="none" x="0" y="5" font-size="10px" fill="#FFFFFF" font-family="sans-serif"> DAY</text></g><g class="node" transform="translate(281.3866943805138,158.9837444423846)"><circle class="outline" cx="0" cy="0" r="40" fill="#569480" stroke="#447666" stroke-width="2px"/><text text-anchor="middle" pointer-events="none" font-family="sans-serif" dy="2.5" font-size="40" fill="#FFFFFF"/><text text-anchor="middle" pointer-events="none" x="0" y="5" font-size="10px" fill="#FFFFFF" font-family="sans-serif"> LAX</text></g><g class="node" transform="translate(279.17486364326,29.553331764084664)"><circle class="outline" cx="0" cy="0" r="40" fill="#8DCC93" stroke="#5db665" stroke-width="2px"/><text text-anchor="middle" pointer-events="none" font-family="sans-serif" dy="2.5" font-size="40" fill="#2A2C34"/><text text-anchor="middle" pointer-events="none" x="0" y="5" font-size="10px" fill="#2A2C34" font-family="sans-serif"> 838</text></g><g class="node" transform="translate(189.69134284752081,-63.618973820806616)"><circle class="outline" cx="0" cy="0" r="40" fill="#569480" stroke="#447666" stroke-width="2px"/><text text-anchor="middle" pointer-events="none" font-family="sans-serif" dy="2.5" font-size="40" fill="#FFFFFF"/><text text-anchor="middle" pointer-events="none" x="0" y="5" font-size="10px" fill="#FFFFFF" font-family="sans-serif"> LAS</text></g><g class="node" transform="translate(61.253190875422,-86.09872959305926)"><circle class="outline" cx="0" cy="0" r="40" fill="#8DCC93" stroke="#5db665" stroke-width="2px"/><text text-anchor="middle" pointer-events="none" font-family="sans-serif" dy="2.5" font-size="40" fill="#2A2C34"/><text text-anchor="middle" pointer-events="none" x="0" y="5" font-size="10px" fill="#2A2C34" font-family="sans-serif"> 822</text></g><g class="node" transform="translate(-44.59035677442464,-9.660201553522697)"><circle class="outline" cx="0" cy="0" r="40" fill="#569480" stroke="#447666" stroke-width="2px"/><text text-anchor="middle" pointer-events="none" font-family="sans-serif" dy="2.5" font-size="40" fill="#FFFFFF"/><text text-anchor="middle" pointer-events="none" x="0" y="5" font-size="10px" fill="#FFFFFF" font-family="sans-serif"> DEN</text></g><g class="node" transform="translate(-86.57064562286969,114.88429161137077)"><circle class="outline" cx="0" cy="0" r="40" fill="#8DCC93" stroke="#5db665" stroke-width="2px"/><text text-anchor="middle" pointer-events="none" font-family="sans-serif" dy="2.5" font-size="40" fill="#2A2C34"/><text text-anchor="middle" pointer-events="none" x="0" y="5" font-size="10px" fill="#2A2C34" font-family="sans-serif"> 802</text></g><g class="node" transform="translate(-42.28347358724952,239.72380517503467)"><circle class="outline" cx="0" cy="0" r="40" fill="#569480" stroke="#447666" stroke-width="2px"/><text text-anchor="middle" pointer-events="none" font-family="sans-serif" dy="2.5" font-size="40" fill="#FFFFFF"/><text text-anchor="middle" pointer-events="none" x="0" y="5" font-size="10px" fill="#FFFFFF" font-family="sans-serif"> MSP</text></g><g class="node" transform="translate(82.12741620421531,199.83807991344136)"><circle class="outline" cx="0" cy="0" r="40" fill="#8DCC93" stroke="#5db665" stroke-width="2px"/><text text-anchor="middle" pointer-events="none" font-family="sans-serif" dy="2.5" font-size="40" fill="#2A2C34"/><text text-anchor="middle" pointer-events="none" x="0" y="5" font-size="10px" fill="#2A2C34" font-family="sans-serif"> 1270</text></g></g></svg>